<?xml version="1.0" encoding="UTF-8"?>
<!-- Generator: Adobe Illustrator 23.0.0, SVG Export Plug-In . SVG Version: 6.00 Build 0)  -->
<svg xmlns="http://www.w3.org/2000/svg" xmlns:xlink="http://www.w3.org/1999/xlink" version="1.1" id="closeLogo" class="closeLogo" x="0px" y="0px" viewBox="0 0 41 41" style="enable-background:new 0 0 41 41;" xml:space="preserve">
<style type="text/css">
	.st100{fill:#FFFFFF;}
	.st101{fill:#233658;}
</style>
<g>
	<path class="st100" d="M29.5,15.5h-18c-0.6,0-1-0.4-1-1v0c0-0.6,0.4-1,1-1h18c0.6,0,1,0.4,1,1v0C30.5,15.1,30.1,15.5,29.5,15.5z"></path>
	<path class="st100" d="M29.5,21.5h-18c-0.6,0-1-0.4-1-1v0c0-0.6,0.4-1,1-1h18c0.6,0,1,0.4,1,1v0C30.5,21.1,30.1,21.5,29.5,21.5z"></path>
	<path class="st100" d="M29.5,27.5h-18c-0.6,0-1-0.4-1-1v0c0-0.6,0.4-1,1-1h18c0.6,0,1,0.4,1,1v0C30.5,27.1,30.1,27.5,29.5,27.5z"></path>
</g>
<g>
	<path class="st101" d="M20.5,1.5c10.5,0,19,8.5,19,19s-8.5,19-19,19s-19-8.5-19-19S10,1.5,20.5,1.5 M20.5,0.5c-11,0-20,9-20,20   s9,20,20,20s20-9,20-20S31.5,0.5,20.5,0.5L20.5,0.5z"></path>
</g>
<polygon class="st101" points="28.3,14.1 26.9,12.7 20.5,19.1 14.1,12.7 12.7,14.1 19.1,20.5 12.7,26.9 14.1,28.3 20.5,21.9   26.9,28.3 28.3,26.9 21.9,20.5 "></polygon>
</svg>
