<?xml version="1.0" encoding="UTF-8"?>
<!-- Generator: Adobe Illustrator 23.0.0, SVG Export Plug-In . SVG Version: 6.00 Build 0)  -->
<svg xmlns="http://www.w3.org/2000/svg" xmlns:xlink="http://www.w3.org/1999/xlink" version="1.1" id="Calque_1" x="0px" y="0px" viewBox="0 0 41 41" style="enable-background:new 0 0 41 41;" xml:space="preserve">
<style type="text/css">
	.st0{fill:#233658;}
</style>
<path class="st0" d="M20.5,0.5c-11,0-20,9-20,20c0,11,9,20,20,20c11,0,20-9,20-20C40.5,9.5,31.5,0.5,20.5,0.5z M13.3,19.8l0.2-0.2  c0.2-0.2,0.5-0.3,0.8-0.3c0,0,0,0,0,0c0.3,0,0.6,0.1,0.8,0.3l3.8,3.5V11c0-0.7,0.7-1.3,1.5-1.3S22,10.3,22,11v12.1l3.9-3.4  c0.2-0.2,0.5-0.3,0.8-0.3c0,0,0,0,0,0c0.3,0,0.6,0.1,0.8,0.3l0.2,0.2c0.2,0.2,0.3,0.5,0.3,0.7c0,0.3-0.1,0.5-0.3,0.7L21.3,27  c-0.2,0.2-0.5,0.3-0.8,0.3c0,0,0,0,0,0c-0.3,0-0.6-0.1-0.8-0.3l-6.3-5.7C12.8,20.8,12.8,20.2,13.3,19.8z M28.1,30.1  c0,0.7-0.5,1.2-1.1,1.2H14.1c-0.6,0-1.1-0.5-1.1-1.2v-0.7c0-0.7,0.5-1.2,1.1-1.2h12.9c0.6,0,1.1,0.5,1.1,1.2V30.1z"></path>
</svg>
