<?xml version="1.0" encoding="UTF-8"?>
<svg xmlns="http://www.w3.org/2000/svg" xmlns:xlink="http://www.w3.org/1999/xlink" version="1.1" id="eye" x="0px" y="0px" viewBox="0 0 31.2 31.2" style="enable-background:new 0 0 31.2 31.2;" xml:space="preserve">
<style type="text/css">
	.eye_off{fill:#939598;}
</style>
<g>
	<path class="eye_off" id="off" d="M15.6,1.6c7.7,0,14,6.3,14,14s-6.3,14-14,14s-14-6.3-14-14S7.9,1.6,15.6,1.6 M15.6,0.6c-8.3,0-15,6.7-15,15   s6.7,15,15,15s15-6.7,15-15S23.9,0.6,15.6,0.6L15.6,0.6z"></path>
</g>
<g>
	<circle class="eye_off" cx="15.6" cy="15.6" r="1.8"></circle>
	<path class="eye_off" d="M15.6,10.8c-5,0-9.1,4.8-9.1,4.8s4.1,4.8,9.1,4.8c5,0,9.1-4.8,9.1-4.8S20.6,10.8,15.6,10.8z M15.6,19.1   c-1.9,0-3.5-1.6-3.5-3.5c0-1.9,1.6-3.5,3.5-3.5c1.9,0,3.5,1.6,3.5,3.5C19.1,17.5,17.5,19.1,15.6,19.1z"></path>
</g>
</svg>
