<?xml version="1.0" encoding="UTF-8"?>
<!-- Generator: Adobe Illustrator 23.0.0, SVG Export Plug-In . SVG Version: 6.00 Build 0)  -->
<svg xmlns="http://www.w3.org/2000/svg" xmlns:xlink="http://www.w3.org/1999/xlink" version="1.1" id="Calque_1" x="0px" y="0px" viewBox="0 0 41 41" style="enable-background:new 0 0 41 41;" xml:space="preserve">
<style type="text/css">
	.st0{fill:#233658;}
</style>
<g>
	<path class="st0" d="M20.5,1.5c10.5,0,19,8.5,19,19s-8.5,19-19,19s-19-8.5-19-19S10,1.5,20.5,1.5 M20.5,0.5c-11,0-20,9-20,20   s9,20,20,20s20-9,20-20S31.5,0.5,20.5,0.5L20.5,0.5z"></path>
</g>
<g>
	<path class="st0" d="M20.4,12.9c0.1,0,0.3,0,0.4,0l0.1,0c0.3,0,0.6,0.1,0.9,0.2c0.5,0.2,0.8,0.5,1.1,0.9c0.1,0.2,0.2,0.4,0.3,0.6   c0.2,0.4,0.2,0.8,0.2,1.3c0,0.4-0.1,0.7-0.3,1.1c-0.1,0.2-0.3,0.5-0.5,0.7c-0.2,0.3-0.5,0.6-0.9,0.9c-0.7,0.5-1.3,0.9-1.8,1.3   c-0.3,0.3-0.7,0.6-1,0.9c-0.2,0.2-0.3,0.4-0.4,0.7c-0.1,0.3-0.1,0.6-0.1,1c0,0.3,0,0.5,0,0.8l3,0c0,0,0-0.1,0-0.1   c0.1-0.6,0.2-1.1,0.6-1.5c0.3-0.3,0.6-0.6,0.9-0.9l0.4-0.3c0.2-0.1,0.4-0.3,0.6-0.4c0.4-0.3,0.8-0.7,1.2-1c0.4-0.3,0.7-0.7,0.9-1   c0.5-0.7,0.7-1.5,0.7-2.3c0-0.6,0-1.1-0.2-1.6c-0.2-0.8-0.6-1.5-1.2-2.1c-0.3-0.3-0.7-0.6-1.2-0.8c-0.9-0.5-1.9-0.8-3-0.9   c-0.4,0-0.8,0-1.2,0c-0.4,0-0.9,0-1.3,0.1c-0.5,0.1-1,0.2-1.4,0.4c-0.8,0.4-1.4,0.8-2,1.5c-0.4,0.5-0.7,1.1-0.9,1.8   c-0.2,0.6-0.3,1.2-0.3,1.9l3.2,0c0-0.1,0-0.2,0-0.3c0.1-0.6,0.3-1.1,0.6-1.7c0.3-0.5,0.7-0.8,1.3-1C19.5,13,19.9,13,20.4,12.9   C20.3,12.9,20.4,12.9,20.4,12.9z"></path>
	<path class="st0" d="M20.1,26.5c-0.2,0-0.4,0-0.5,0.1c-0.7,0.1-1.1,0.5-1.4,1.1c-0.2,0.4-0.2,0.9-0.1,1.3c0.1,0.7,0.5,1.2,1.2,1.4   c0.5,0.2,1.1,0.2,1.6,0c0.6-0.2,0.9-0.5,1.2-1.1c0.1-0.2,0.2-0.5,0.2-0.8l0-0.1c0-0.1,0-0.2,0-0.3c-0.1-0.7-0.5-1.1-1-1.4   C20.8,26.6,20.5,26.5,20.1,26.5z"></path>
</g>
</svg>

