<?xml version="1.0" encoding="UTF-8"?>
<!-- Generator: Adobe Illustrator 23.0.0, SVG Export Plug-In . SVG Version: 6.00 Build 0)  -->
<svg xmlns="http://www.w3.org/2000/svg" xmlns:xlink="http://www.w3.org/1999/xlink" version="1.1" id="Calque_1" x="0px" y="0px" viewBox="0 0 41 41" style="enable-background:new 0 0 41 41;" xml:space="preserve">
<style type="text/css">
	.st0{fill:#233658;}
</style>
<path class="st0" d="M20.5,0.5c-11,0-20,9-20,20c0,11,9,20,20,20c11,0,20-9,20-20C40.5,9.5,31.5,0.5,20.5,0.5z M23.2,25.9L19,30.1  c-1.1,1.1-2.5,1.7-4.1,1.7c-3.2,0-5.7-2.6-5.7-5.7c0-1.5,0.6-3,1.7-4.1l2-2c0.2-0.2,0.5-0.4,0.9-0.4c0.3,0,0.6,0.1,0.9,0.4  c0.2,0.2,0.4,0.5,0.4,0.9c0,0.3-0.1,0.7-0.4,0.9l-2,2c-0.6,0.6-0.9,1.4-0.9,2.3c0,1.8,1.5,3.2,3.2,3.2c0.9,0,1.7-0.3,2.3-0.9  l4.1-4.1c0.6-0.6,0.9-1.4,0.9-2.3c0-1.1-0.6-2.1-1.5-2.7c-0.3-0.2-0.5-0.5-0.5-0.8c-0.1-0.3,0-0.7,0.2-0.9c0.2-0.3,0.5-0.5,0.8-0.5  c0.3-0.1,0.7,0,0.9,0.2c1.7,1.1,2.7,2.9,2.7,4.8C24.9,23.4,24.3,24.9,23.2,25.9z M30.1,19l-2,2c-0.2,0.2-0.6,0.4-0.9,0.4  c-0.3,0-0.6-0.1-0.9-0.4c-0.2-0.2-0.4-0.5-0.4-0.9c0-0.3,0.1-0.7,0.4-0.9l2-2c0.6-0.6,0.9-1.4,0.9-2.3c0-1.8-1.5-3.2-3.2-3.2  c-0.9,0-1.7,0.3-2.3,0.9l-4.1,4.1c-0.6,0.6-0.9,1.4-0.9,2.3c0,1.1,0.6,2.1,1.5,2.7c0.3,0.2,0.5,0.5,0.5,0.8c0.1,0.3,0,0.7-0.2,0.9  c-0.2,0.3-0.5,0.5-0.8,0.5c-0.1,0-0.2,0-0.3,0c-0.2,0-0.5-0.1-0.7-0.2c-1.7-1.1-2.7-2.9-2.7-4.8c0-1.5,0.6-3,1.7-4.1l4.1-4.1  c1.1-1.1,2.5-1.7,4.1-1.7c3.2,0,5.7,2.6,5.7,5.7C31.8,16.5,31.2,17.9,30.1,19z"></path>
</svg>

