<svg xmlns="http://www.w3.org/2000/svg" xmlns:xlink="http://www.w3.org/1999/xlink" version="1.1" id="menu_configurator" x="0px" y="0px" viewBox="0 0 41 41" style="enable-background:new 0 0 41 41;" xml:space="preserve">
<style type="text/css">
	.mc0{fill:#233658;}
	.mc1{fill:#FFFFFF;}
</style>
<circle class="mc0" cx="20.5" cy="20.5" r="20"></circle>
<g>
	<path class="mc1" d="M29.5,15.5h-18c-0.6,0-1-0.4-1-1v0c0-0.6,0.4-1,1-1h18c0.6,0,1,0.4,1,1v0C30.5,15.1,30.1,15.5,29.5,15.5z"></path>
	<path class="mc1" d="M29.5,21.5h-18c-0.6,0-1-0.4-1-1v0c0-0.6,0.4-1,1-1h18c0.6,0,1,0.4,1,1v0C30.5,21.1,30.1,21.5,29.5,21.5z"></path>
	<path class="mc1" d="M29.5,27.5h-18c-0.6,0-1-0.4-1-1v0c0-0.6,0.4-1,1-1h18c0.6,0,1,0.4,1,1v0C30.5,27.1,30.1,27.5,29.5,27.5z"></path>
</g>
</svg>