<?xml version="1.0" encoding="utf-8"?>
<!-- Generator: Adobe Illustrator 23.0.0, SVG Export Plug-In . SVG Version: 6.00 Build 0)  -->
<svg version="1.1" id="Calque_1" xmlns="http://www.w3.org/2000/svg" xmlns:xlink="http://www.w3.org/1999/xlink" x="0px" y="0px"
	 viewBox="0 0 40 40" style="enable-background:new 0 0 40 40;" xml:space="preserve">
<style type="text/css">
	.st0{fill:#939598;}
</style>
<g>
	<path class="st0" d="M21.3,40c-0.5,0-0.7-0.2-0.7-0.7V9c0-0.3-0.1-0.4-0.4-0.3l-5.1,2.8c-0.6,0.3-1,0.2-1.2-0.2l-2.3-3.9
		c-0.3-0.5-0.1-0.9,0.4-1.2l10.2-5.7c0.3-0.2,0.5-0.3,0.7-0.3C23.2,0,23.4,0,23.7,0h4c0.5,0,0.7,0.3,0.7,0.8v38.5
		c0,0.5-0.2,0.7-0.7,0.7H21.3z"/>
</g>
</svg>
