<?xml version="1.0" encoding="utf-8"?>
<!-- Generator: Adobe Illustrator 23.0.0, SVG Export Plug-In . SVG Version: 6.00 Build 0)  -->
<svg version="1.1" id="Calque_1" xmlns="http://www.w3.org/2000/svg" xmlns:xlink="http://www.w3.org/1999/xlink" x="0px" y="0px"
	 viewBox="0 0 40 40" style="enable-background:new 0 0 40 40;" xml:space="preserve">
<style type="text/css">
	.st0{fill:#233658;}
</style>
<path class="st0" d="M35.3,40C25,40,14.7,40,4.5,40c0.1-0.3,0.1-0.7,0.2-1c10.6-0.6,10.6-2.2,12.2-9.7c1.3-5.8,2.4-11.6,3.7-17.5
	c0.2-0.8,0.5-1.8,0.5-3.5c0-2.6-3.6-2.6-8.8-2.2c0.1-0.3,0.1-0.7,0.2-1c5.1-0.8,8.5-1.2,14.5-4.9c2.7,0,5.4,0,8.1,0
	c-2.2,10.5-4.5,21.1-6.7,31.6c-0.3,1.7-0.6,3.1-0.6,3.5c0,3.7,2.2,3.5,7.9,4C35.4,39.4,35.3,39.7,35.3,40z"/>
</svg>
