<?xml version="1.0" encoding="utf-8"?>
<!-- Generator: Adobe Illustrator 23.0.0, SVG Export Plug-In . SVG Version: 6.00 Build 0)  -->
<svg version="1.1" id="Calque_1" xmlns="http://www.w3.org/2000/svg" xmlns:xlink="http://www.w3.org/1999/xlink" x="0px" y="0px"
	 viewBox="0 0 50 21" style="enable-background:new 0 0 50 21;" xml:space="preserve">
<style type="text/css">
	.st0{fill:#FFFFFF;stroke:#231F20;stroke-width:0.4956;stroke-linecap:round;stroke-linejoin:round;stroke-miterlimit:10;}
	.st1{fill:#231F20;stroke:#231F20;stroke-width:0.4956;stroke-linecap:round;stroke-linejoin:round;stroke-miterlimit:10;}
</style>
<g>
	<path class="st0" d="M4.7,18.9C3.6,14.1,3.3,9,3.9,4c0-0.6,0.7-1.2,1.3-1.1l0.6,0l0.7,0l1.1,0l0.8,0l0.9,0l1,0l2.1,0l2.3,0l2,0
		l0.4,0l0.4,0l0.5,0l0.5,0l0.5,0l0.9,0l0.9,0l1.9,0l0.2,0l0.2,0l0.2,0l0.2,0l0.5-0.1l0.5-0.1L25,2.6l0.4-0.2l0.7-0.4l0.6-0.6
		l0.1-0.2l0,0L27,1.2l0.2-0.4l0.1,0l0.1,0l0.5,0l0.8,0l5.7,0l6.7,0l0.1,0l0.1,0l0.1,0l0.4,0L42.3,1l0.5,0.1l0.5,0.2l0.5,0.2l0.4,0.3
		L44.5,2l0.1,0.1l0.7,0.7l0.4,0.6l0.1,0.2l0.3,0.9l0.2,0.9l0,0.5l0,0.5l-0.1,0.5l-0.1,0.5L46,8l-0.2,0.5l-0.3,0.5l-0.3,0.4l-0.4,0.4
		L44.4,10l-0.2,0.1l-1.7,1.2l-2.2,1.5l-4.1,2.8l-4.1,2.9l-0.6,0.3L30.9,19l-1.3,0l-5.5,0l-5.3,0l-5,0l-2.3,0l-2.1,0l-3.4,0l-0.8,0
		L4.7,18.9z"/>
	<path class="st1" d="M27.3,0.8H5.9c-0.5-0.1-1.1,0.5-1,1c0,0.5,0.2,1.1,0.4,1l0.6,0l0.7,0l1.1,0l0.8,0l0.9,0l1,0l2.1,0l2.3,0l2,0
		l0.4,0l0.4,0l0.5,0l0.5,0l0.5,0l0.9,0l0.9,0l1.9,0l0.2,0l0.2,0l0.2,0l0.2,0l0.5-0.1l0.5-0.1L25,2.6l0.4-0.2l0.7-0.4l0.6-0.6
		l0.1-0.2l0,0L27,1.2L27.3,0.8z"/>
	<path class="st1" d="M33.3,17.8l-16.3,0l-12.5,0C4,17.9,3.8,18.6,4,19.2c0.1,0.5,0.7,1,1.2,0.9l11.8,0l12,0
		C30.3,20.3,32.5,19.1,33.3,17.8z"/>
	<circle class="st0" cx="35" cy="10.1" r="1.8"/>
	<circle class="st0" cx="41.3" cy="6" r="1.8"/>
</g>
</svg>
